<?xml version="1.0" encoding="UTF-8"?><svg id="Layer_1" xmlns="http://www.w3.org/2000/svg" viewBox="0 0 433.52 135"><path d="M433.52,0v135H.75V0h432.77ZM80.12,79.49l4.86,2.99c10.72-11.03,14.08-34.48,7.78-48.27-2.44-5.34-8.49-6.58-13.86-7.12C41.12,23.31,9.05,55.58,12.74,93.37c1.07,10.96,4.95,9.16,13.23,5.77,19.24-7.9,30.47-22.74,44.8-36.88,2.55.39-.09,4.25,2.16,6.06,1.01.81,3.01,1.21,3.85-.03l-1.33-14.87c-2.5-1.29-14.85-3.67-16.23-1.61-2.43,3.64,5.28,5.3,7.41,5.56-14.22,13.21-26.43,31-46.4,35.63-6.86-34.92,31.82-67.48,65.19-57.27,6.48,14.69,4.65,31.22-5.31,43.76h.01ZM122.04,40.5v53.25h10.48v-23.62c0-5.08,8.5-9.41,12.52-5.42.18.18,1.7,2.99,1.7,3.17v25.88h10.48v-28.12c0-1.02-2.12-5.78-2.99-6.76-3.8-4.27-14.32-4.71-18.68-1.45-1.78,1.33-1.75,3.46-3.79,3.33l.42-19.54-10.16-.7.02-.02ZM247.83,93.75v-52.12c-2.6-2.3-7.16-.66-10.49-1.13l.75,20.25c-4.54-4.79-9.08-6.48-15.77-4.93-13.34,3.1-13.69,32.93-1.62,37.73,4.75,1.89,10.3,1.42,14.38-1.72,1.25-.96,1.24-2.95,2.64-2.59l2,4.38,8.11.13ZM292.01,40.5l-10.16.7.41,19.55c-5.83-7.94-18.96-7.15-23.36,1.73-3.17,6.39-3.11,19.22.28,25.53,4.53,8.44,17.08,8.89,22.71,1.26l1.97,4.39,8.14.1v-53.25h0ZM313.72,93.75v-52.12c-2.59-2.3-7.16-.66-10.48-1.12v53.25h10.48ZM202.91,93.75v-38.25l-9.73.75v20.62c0,.37-1.37,5.21-1.66,5.83-2.82,6-13.31,4.26-13.31-1.33v-25.12h-10.48v24.38c0,1.49,1.48,7.45,2.36,8.89,4.5,7.38,18.53,6.39,23.47-.25l1.82,4.16,7.54.32h-.01ZM359.4,56.25l-9.73-.75v20.62c0,.61-1.3,5.79-1.67,6.58-2.8,6.01-13.31,4.27-13.31-1.33v-25.12h-10.48v26.62c0,.25,1.1,4.09,1.33,4.67,3.89,9.59,18.57,8.97,24.5,1.71l2.34,4.39,7.01.1v-37.5h.01ZM370.63,56.25v54.75h10.48v-19.12c0-.34-2.1-1.99.36-1.87,4,5.05,9.74,5.54,15.57,3.59,12.9-4.32,12.47-34.92-.92-37.76-5.73-1.21-11.72-.51-14.65,4.92-1.98.7-1.35-3.98-2.57-4.94l-8.27.44h0ZM65.69,84.17c-3.55.73-8.16,5.65-8.73,9.25-2.6,16.48,20.38,21.17,24.61,5.91,2.84-10.24-6.06-17.18-15.88-15.16Z"/><rect width=".75" height="135" fill="#fff"/><path d="M80.12,79.49c9.96-12.54,11.79-29.07,5.31-43.76C52.05,25.52,13.37,58.08,20.23,93c19.97-4.64,32.18-22.42,46.4-35.63-2.13-.26-9.84-1.91-7.41-5.56,1.38-2.07,13.73.32,16.23,1.61l1.33,14.87c-.85,1.24-2.85.84-3.85.03-2.26-1.82.38-5.68-2.16-6.06-14.33,14.14-25.56,28.98-44.8,36.88-8.28,3.4-12.16,5.19-13.23-5.77C9.05,55.58,41.12,23.31,78.9,27.09c5.37.54,11.42,1.77,13.86,7.12,6.3,13.8,2.94,37.24-7.78,48.27l-4.86-2.99Z" fill="#fff"/><path d="M370.63,56.25l8.27-.44c1.22.97.59,5.64,2.57,4.94,2.93-5.43,8.92-6.13,14.65-4.92,13.39,2.84,13.82,33.44.92,37.76-5.83,1.95-11.57,1.46-15.57-3.59-2.46-.12-.36,1.53-.36,1.87v19.12h-10.48v-54.75h0ZM383.57,64.72c-3.85,3.32-3.86,19.36,1.99,21.19,13.68,4.29,12.92-20.91,4.56-22.62-1.85-.38-5.14.2-6.56,1.42h.01Z" fill="#fff"/><path d="M247.83,93.75l-8.11-.13-2-4.38c-1.39-.36-1.39,1.63-2.64,2.59-4.08,3.13-9.63,3.6-14.38,1.72-12.07-4.8-11.71-34.63,1.62-37.73,6.69-1.55,11.23.14,15.77,4.93l-.75-20.25c3.33.47,7.89-1.17,10.49,1.13v52.12ZM227.4,63.91c-6.84,2.03-8.47,25.41,5.68,22.18,7.54-1.72,8.28-26.32-5.68-22.18Z" fill="#fff"/><path d="M292.01,40.5v53.25l-8.14-.1-1.97-4.39c-5.63,7.63-18.19,7.18-22.71-1.26-3.38-6.31-3.44-19.14-.28-25.53,4.4-8.87,17.52-9.67,23.36-1.73l-.41-19.55,10.16-.7h-.01ZM271.57,63.91c-6.16,1.83-6.61,20.25,0,22.18,10.95,3.2,12.01-8.52,10.37-16.38-1.06-5.11-5.34-7.29-10.37-5.8Z" fill="#fff"/><path d="M122.04,40.5l10.16.7-.42,19.54c2.04.13,2.01-2,3.79-3.33,4.36-3.26,14.88-2.83,18.68,1.45.87.98,2.99,5.74,2.99,6.76v28.12h-10.48v-25.88c0-.18-1.52-2.99-1.7-3.17-4.02-3.99-12.52.34-12.52,5.42v23.62h-10.48v-53.25l-.02.02Z" fill="#fff"/><path d="M359.4,56.25v37.5l-7.01-.1-2.34-4.39c-5.94,7.26-20.61,7.88-24.5-1.71-.23-.58-1.33-4.41-1.33-4.67v-26.62h10.48v25.12c0,5.6,10.5,7.34,13.31,1.33.37-.79,1.67-5.98,1.67-6.58v-20.62l9.73.75h-.01Z" fill="#fff"/><path d="M202.91,93.75l-7.54-.32-1.82-4.16c-4.94,6.64-18.97,7.63-23.47.25-.88-1.44-2.36-7.4-2.36-8.89v-24.38h10.48v25.12c0,5.6,10.49,7.34,13.31,1.33.3-.63,1.66-5.47,1.66-5.83v-20.62l9.73-.75v38.25h.01Z" fill="#fff"/><path d="M313.72,93.75h-10.48v-53.25c3.32.47,7.89-1.17,10.48,1.12v52.12h0Z" fill="#fff"/><path d="M65.69,84.17c9.82-2.03,18.71,4.92,15.88,15.16-4.22,15.26-27.2,10.57-24.61-5.91.57-3.6,5.18-8.51,8.73-9.25ZM65.37,101.02c7.22,6.69,14.67-7.29,7.25-10.63s-13.05,5.25-7.25,10.63Z" fill="#fff"/><path d="M383.57,64.72c1.42-1.22,4.7-1.8,6.56-1.42,8.36,1.7,9.12,26.91-4.56,22.62-5.85-1.83-5.85-17.88-1.99-21.19h-.01Z"/><path d="M227.4,63.91c13.96-4.14,13.22,20.45,5.68,22.18-14.15,3.23-12.52-20.15-5.68-22.18Z"/><path d="M271.57,63.91c5.03-1.49,9.31.69,10.37,5.8,1.64,7.86.58,19.58-10.37,16.38-6.61-1.93-6.16-20.36,0-22.18Z"/><path d="M65.37,101.02c-5.8-5.38-.26-14.01,7.25-10.63s-.03,17.32-7.25,10.63Z"/></svg>