<?xml version="1.0" encoding="UTF-8"?>
<svg id="Layer_1" xmlns="http://www.w3.org/2000/svg" version="1.1" viewBox="0 0 446.2 135">
  <!-- Generator: Adobe Illustrator 29.5.1, SVG Export Plug-In . SVG Version: 2.1.0 Build 141)  -->
  <defs>
    <style>
      .st0 {
        fill: #fff;
      }
    </style>
  </defs>
  <rect width="432.8" height="135"/>
  <path class="st0" d="M85.6,79.5c10-12.5,11.8-29.1,5.3-43.8C57.6,25.5,18.9,58.1,25.7,93c20-4.6,32.2-22.4,46.4-35.6-2.1-.3-9.8-1.9-7.4-5.6,1.4-2.1,13.7.3,16.2,1.6l1.3,14.9c-.8,1.2-2.8.8-3.8,0-2.3-1.8.4-5.7-2.2-6.1-14.3,14.1-25.6,29-44.8,36.9-8.3,3.4-12.2,5.2-13.2-5.8C14.6,55.6,46.6,23.3,84.4,27.1c5.4.5,11.4,1.8,13.9,7.1,6.3,13.8,2.9,37.2-7.8,48.3l-4.9-3Z"/>
  <path class="st0" d="M376.1,56.2l8.3-.4c1.2,1,.6,5.6,2.6,4.9,2.9-5.4,8.9-6.1,14.6-4.9,13.4,2.8,13.8,33.4.9,37.8-5.8,1.9-11.6,1.5-15.6-3.6-2.5-.1-.4,1.5-.4,1.9v19.1h-10.5v-54.8h0ZM389.1,64.7c-3.9,3.3-3.9,19.4,2,21.2,13.7,4.3,12.9-20.9,4.6-22.6-1.9-.4-5.1.2-6.6,1.4h0Z"/>
  <path class="st0" d="M253.3,93.8h-8.1c0-.1-2-4.5-2-4.5-1.4-.4-1.4,1.6-2.6,2.6-4.1,3.1-9.6,3.6-14.4,1.7-12.1-4.8-11.7-34.6,1.6-37.7,6.7-1.5,11.2.1,15.8,4.9l-.8-20.2c3.3.5,7.9-1.2,10.5,1.1v52.1ZM232.9,63.9c-6.8,2-8.5,25.4,5.7,22.2,7.5-1.7,8.3-26.3-5.7-22.2Z"/>
  <path class="st0" d="M297.5,40.5v53.2h-8.1c0,0-2-4.5-2-4.5-5.6,7.6-18.2,7.2-22.7-1.3-3.4-6.3-3.4-19.1-.3-25.5,4.4-8.9,17.5-9.7,23.4-1.7l-.4-19.5,10.2-.7h0ZM277.1,63.9c-6.2,1.8-6.6,20.3,0,22.2,11,3.2,12-8.5,10.4-16.4-1.1-5.1-5.3-7.3-10.4-5.8Z"/>
  <path class="st0" d="M127.5,40.5l10.2.7-.4,19.5c2,.1,2-2,3.8-3.3,4.4-3.3,14.9-2.8,18.7,1.5.9,1,3,5.7,3,6.8v28.1h-10.5v-25.9c0-.2-1.5-3-1.7-3.2-4-4-12.5.3-12.5,5.4v23.6h-10.5v-53.2h0Z"/>
  <path class="st0" d="M364.9,56.2v37.5h-7c0,0-2.3-4.5-2.3-4.5-5.9,7.3-20.6,7.9-24.5-1.7-.2-.6-1.3-4.4-1.3-4.7v-26.6h10.5v25.1c0,5.6,10.5,7.3,13.3,1.3.4-.8,1.7-6,1.7-6.6v-20.6l9.7.8h0Z"/>
  <path class="st0" d="M208.4,93.8l-7.5-.3-1.8-4.2c-4.9,6.6-19,7.6-23.5.2-.9-1.4-2.4-7.4-2.4-8.9v-24.4h10.5v25.1c0,5.6,10.5,7.3,13.3,1.3.3-.6,1.7-5.5,1.7-5.8v-20.6l9.7-.8v38.2h0Z"/>
  <path class="st0" d="M319.2,93.8h-10.5v-53.2c3.3.5,7.9-1.2,10.5,1.1v52.1h0Z"/>
  <path class="st0" d="M71.2,84.2c9.8-2,18.7,4.9,15.9,15.2-4.2,15.3-27.2,10.6-24.6-5.9.6-3.6,5.2-8.5,8.7-9.2ZM70.9,101c7.2,6.7,14.7-7.3,7.2-10.6s-13,5.2-7.2,10.6Z"/>
</svg>